<svg xmlns="http://www.w3.org/2000/svg" viewBox="0 0 700 500" width="700" height="500" role="img" aria-label="Albero delle sette sezioni delle impostazioni della fotocamera con le voci consigliate elencate sotto Foto, Video e Generali"><title>Albero delle sette sezioni delle impostazioni della fotocamera con le voci consigliate elencate sotto Foto, Video e Generali</title><rect x="0" y="0" width="700" height="500" fill="#fdfdfd"/><defs><marker id="ar" viewBox="0 0 10 10" refX="9" refY="5" markerWidth="6" markerHeight="6" orient="auto-start-reverse"><polygon points="0,1 9,5 0,9" fill="#0c7a84"/></marker><marker id="ai" viewBox="0 0 10 10" refX="9" refY="5" markerWidth="6" markerHeight="6" orient="auto-start-reverse"><polygon points="0,1 9,5 0,9" fill="#1d2427"/></marker></defs><rect x="14" y="208" width="128" height="44" rx="8" fill="#e6eaec" stroke="#1d2427" stroke-width="1.5"/><text x="78" y="228" font-family="system-ui, sans-serif" font-size="12.5" font-weight="700" fill="#1d2427" text-anchor="middle">Impostazioni</text><text x="78" y="243" font-family="system-ui, sans-serif" font-size="11" font-weight="400" fill="#5c686d" text-anchor="middle">fotocamera</text><polyline points="142,230 176,230 176,31 198,31" fill="none" stroke="#c3cbcf" stroke-width="1.2"/><rect x="198" y="18" width="486" height="77" rx="7" fill="#f7f9f9" stroke="#0c7a84" stroke-width="1.2"/><text x="210" y="35" font-family="system-ui, sans-serif" font-size="12" font-weight="700" fill="#1d2427" text-anchor="start">Funzioni intelligenti</text><text x="372" y="35" font-family="ui-monospace, monospace" font-size="11" font-weight="400" fill="#5c686d" text-anchor="start">Ottimizzatore scena  ✓</text><text x="372" y="52" font-family="ui-monospace, monospace" font-size="11" font-weight="400" fill="#5c686d" text-anchor="start">Rilevamento documenti  ✓</text><text x="372" y="69" font-family="ui-monospace, monospace" font-size="11" font-weight="400" fill="#5c686d" text-anchor="start">Traccia soggetto AF  ✓</text><polyline points="142,230 176,230 176,116 198,116" fill="none" stroke="#c3cbcf" stroke-width="1.2"/><rect x="198" y="103" width="486" height="77" rx="7" fill="#f7f9f9" stroke="#0c7a84" stroke-width="1.2"/><text x="210" y="120" font-family="system-ui, sans-serif" font-size="12" font-weight="700" fill="#1d2427" text-anchor="start">Foto</text><text x="372" y="120" font-family="ui-monospace, monospace" font-size="11" font-weight="400" fill="#5c686d" text-anchor="start">Correzione forma  ✓</text><text x="372" y="137" font-family="ui-monospace, monospace" font-size="11" font-weight="400" fill="#5c686d" text-anchor="start">Copie RAW  ✓</text><text x="372" y="154" font-family="ui-monospace, monospace" font-size="11" font-weight="400" fill="#5c686d" text-anchor="start">Immagini alta efficienza</text><polyline points="142,230 176,230 176,201 198,201" fill="none" stroke="#c3cbcf" stroke-width="1.2"/><rect x="198" y="188" width="486" height="77" rx="7" fill="#f7f9f9" stroke="#0c7a84" stroke-width="1.2"/><text x="210" y="205" font-family="system-ui, sans-serif" font-size="12" font-weight="700" fill="#1d2427" text-anchor="start">Video</text><text x="372" y="205" font-family="ui-monospace, monospace" font-size="11" font-weight="400" fill="#5c686d" text-anchor="start">Video alta efficienza  ✓</text><text x="372" y="222" font-family="ui-monospace, monospace" font-size="11" font-weight="400" fill="#5c686d" text-anchor="start">Formato video → APV / Log</text><text x="372" y="239" font-family="ui-monospace, monospace" font-size="11" font-weight="400" fill="#5c686d" text-anchor="start">Video HDR10+</text><polyline points="142,230 176,230 176,286 198,286" fill="none" stroke="#c3cbcf" stroke-width="1.2"/><rect x="198" y="273" width="486" height="77" rx="7" fill="#f7f9f9" stroke="#0c7a84" stroke-width="1.2"/><text x="210" y="290" font-family="system-ui, sans-serif" font-size="12" font-weight="700" fill="#1d2427" text-anchor="start">Generali</text><text x="372" y="290" font-family="ui-monospace, monospace" font-size="11" font-weight="400" fill="#5c686d" text-anchor="start">Griglia  ✓</text><text x="372" y="307" font-family="ui-monospace, monospace" font-size="11" font-weight="400" fill="#5c686d" text-anchor="start">Tasto volume → Scatta  ✓</text><text x="372" y="324" font-family="ui-monospace, monospace" font-size="11" font-weight="400" fill="#5c686d" text-anchor="start">Tieni premuto → Raffica  ✓</text><polyline points="142,230 176,230 176,371 198,371" fill="none" stroke="#c3cbcf" stroke-width="1.2"/><rect x="198" y="358" width="486" height="26" rx="7" fill="none" stroke="#c3cbcf" stroke-width="1.2"/><text x="210" y="375" font-family="system-ui, sans-serif" font-size="12" font-weight="400" fill="#5c686d" text-anchor="start">Good Lock Labs</text><polyline points="142,230 176,230 176,405 198,405" fill="none" stroke="#c3cbcf" stroke-width="1.2"/><rect x="198" y="392" width="486" height="26" rx="7" fill="none" stroke="#c3cbcf" stroke-width="1.2"/><text x="210" y="409" font-family="system-ui, sans-serif" font-size="12" font-weight="400" fill="#5c686d" text-anchor="start">Privacy</text><polyline points="142,230 176,230 176,439 198,439" fill="none" stroke="#c3cbcf" stroke-width="1.2"/><rect x="198" y="426" width="486" height="26" rx="7" fill="none" stroke="#c3cbcf" stroke-width="1.2"/><text x="210" y="443" font-family="system-ui, sans-serif" font-size="12" font-weight="400" fill="#5c686d" text-anchor="start">Altre impostazioni</text><text x="198" y="486" font-family="ui-monospace, monospace" font-size="10.5" font-weight="400" fill="#0c7a84" text-anchor="start">✓ = da attivare secondo il capitolo 3</text></svg>