<svg xmlns="http://www.w3.org/2000/svg" viewBox="0 0 700 260" width="700" height="260" role="img" aria-label="Quattro schemi visti dall'alto con il soggetto al centro e la luce davanti, di lato, dietro e dall'alto, con l'effetto prodotto da ciascuna posizione"><title>Quattro schemi visti dall'alto con il soggetto al centro e la luce davanti, di lato, dietro e dall'alto, con l'effetto prodotto da ciascuna posizione</title><rect x="0" y="0" width="700" height="260" fill="#fdfdfd"/><defs><marker id="ar" viewBox="0 0 10 10" refX="9" refY="5" markerWidth="6" markerHeight="6" orient="auto-start-reverse"><polygon points="0,1 9,5 0,9" fill="#0c7a84"/></marker><marker id="ai" viewBox="0 0 10 10" refX="9" refY="5" markerWidth="6" markerHeight="6" orient="auto-start-reverse"><polygon points="0,1 9,5 0,9" fill="#1d2427"/></marker></defs><circle cx="100" cy="112" r="70" fill="none" stroke="#c3cbcf" stroke-width="1" stroke-dasharray="3 4"/><circle cx="100" cy="112" r="24" fill="#d7ebed" stroke="#1d2427" stroke-width="1.5"/><circle cx="100" cy="174" r="11" fill="#5c686d"/><line x1="114.0" y1="174.0" x2="119.0" y2="174.0" stroke="#5c686d" stroke-width="1.6"/><line x1="109.9" y1="183.9" x2="113.4" y2="187.4" stroke="#5c686d" stroke-width="1.6"/><line x1="100.0" y1="188.0" x2="100.0" y2="193.0" stroke="#5c686d" stroke-width="1.6"/><line x1="90.1" y1="183.9" x2="86.6" y2="187.4" stroke="#5c686d" stroke-width="1.6"/><line x1="86.0" y1="174.0" x2="81.0" y2="174.0" stroke="#5c686d" stroke-width="1.6"/><line x1="90.1" y1="164.1" x2="86.6" y2="160.6" stroke="#5c686d" stroke-width="1.6"/><line x1="100.0" y1="160.0" x2="100.0" y2="155.0" stroke="#5c686d" stroke-width="1.6"/><line x1="109.9" y1="164.1" x2="113.4" y2="160.6" stroke="#5c686d" stroke-width="1.6"/><text x="100" y="206" font-family="system-ui, sans-serif" font-size="13" font-weight="700" fill="#1d2427" text-anchor="middle">Frontale</text><text x="100" y="224" font-family="system-ui, sans-serif" font-size="10.5" font-weight="400" fill="#5c686d" text-anchor="middle">Piatta: nessun volume</text><circle cx="268" cy="112" r="70" fill="none" stroke="#c3cbcf" stroke-width="1" stroke-dasharray="3 4"/><circle cx="268" cy="112" r="24" fill="#e6eaec" stroke="#1d2427" stroke-width="1.5"/><path d="M268 88 a24 24 0 0 0 0 48 z" fill="#d7ebed"/><line x1="268" y1="88" x2="268" y2="136" stroke="#1d2427" stroke-width="1.2"/><circle cx="206" cy="112" r="11" fill="#0c7a84"/><line x1="220.0" y1="112.0" x2="225.0" y2="112.0" stroke="#0c7a84" stroke-width="1.6"/><line x1="215.9" y1="121.9" x2="219.4" y2="125.4" stroke="#0c7a84" stroke-width="1.6"/><line x1="206.0" y1="126.0" x2="206.0" y2="131.0" stroke="#0c7a84" stroke-width="1.6"/><line x1="196.1" y1="121.9" x2="192.6" y2="125.4" stroke="#0c7a84" stroke-width="1.6"/><line x1="192.0" y1="112.0" x2="187.0" y2="112.0" stroke="#0c7a84" stroke-width="1.6"/><line x1="196.1" y1="102.1" x2="192.6" y2="98.6" stroke="#0c7a84" stroke-width="1.6"/><line x1="206.0" y1="98.0" x2="206.0" y2="93.0" stroke="#0c7a84" stroke-width="1.6"/><line x1="215.9" y1="102.1" x2="219.4" y2="98.6" stroke="#0c7a84" stroke-width="1.6"/><text x="268" y="206" font-family="system-ui, sans-serif" font-size="13" font-weight="700" fill="#0c7a84" text-anchor="middle">Laterale</text><text x="268" y="224" font-family="system-ui, sans-serif" font-size="10.5" font-weight="400" fill="#5c686d" text-anchor="middle">Volume e texture</text><circle cx="436" cy="112" r="70" fill="none" stroke="#c3cbcf" stroke-width="1" stroke-dasharray="3 4"/><circle cx="436" cy="112" r="24" fill="#e6eaec" stroke="#1d2427" stroke-width="1.5"/><path d="M412 112 a24 24 0 0 1 48 0 z" fill="#d7ebed" opacity=".7"/><circle cx="436" cy="50" r="11" fill="#5c686d"/><line x1="450.0" y1="50.0" x2="455.0" y2="50.0" stroke="#5c686d" stroke-width="1.6"/><line x1="445.9" y1="59.9" x2="449.4" y2="63.4" stroke="#5c686d" stroke-width="1.6"/><line x1="436.0" y1="64.0" x2="436.0" y2="69.0" stroke="#5c686d" stroke-width="1.6"/><line x1="426.1" y1="59.9" x2="422.6" y2="63.4" stroke="#5c686d" stroke-width="1.6"/><line x1="422.0" y1="50.0" x2="417.0" y2="50.0" stroke="#5c686d" stroke-width="1.6"/><line x1="426.1" y1="40.1" x2="422.6" y2="36.6" stroke="#5c686d" stroke-width="1.6"/><line x1="436.0" y1="36.0" x2="436.0" y2="31.0" stroke="#5c686d" stroke-width="1.6"/><line x1="445.9" y1="40.1" x2="449.4" y2="36.6" stroke="#5c686d" stroke-width="1.6"/><text x="436" y="206" font-family="system-ui, sans-serif" font-size="13" font-weight="700" fill="#1d2427" text-anchor="middle">Controluce</text><text x="436" y="224" font-family="system-ui, sans-serif" font-size="10.5" font-weight="400" fill="#5c686d" text-anchor="middle">Atmosfera, esponi sul volto</text><circle cx="604" cy="112" r="70" fill="none" stroke="#c3cbcf" stroke-width="1" stroke-dasharray="3 4"/><circle cx="604" cy="112" r="24" fill="#e6eaec" stroke="#1d2427" stroke-width="1.5"/><path d="M580 112 a24 24 0 0 1 48 0 z" fill="#d7ebed"/><circle cx="604" cy="50" r="11" fill="#5c686d"/><line x1="618.0" y1="50.0" x2="623.0" y2="50.0" stroke="#5c686d" stroke-width="1.6"/><line x1="613.9" y1="59.9" x2="617.4" y2="63.4" stroke="#5c686d" stroke-width="1.6"/><line x1="604.0" y1="64.0" x2="604.0" y2="69.0" stroke="#5c686d" stroke-width="1.6"/><line x1="594.1" y1="59.9" x2="590.6" y2="63.4" stroke="#5c686d" stroke-width="1.6"/><line x1="590.0" y1="50.0" x2="585.0" y2="50.0" stroke="#5c686d" stroke-width="1.6"/><line x1="594.1" y1="40.1" x2="590.6" y2="36.6" stroke="#5c686d" stroke-width="1.6"/><line x1="604.0" y1="36.0" x2="604.0" y2="31.0" stroke="#5c686d" stroke-width="1.6"/><line x1="613.9" y1="40.1" x2="617.4" y2="36.6" stroke="#5c686d" stroke-width="1.6"/><line x1="604" y1="72" x2="604" y2="82" stroke="#5c686d" stroke-width="1.4" stroke-dasharray="3 3" marker-end="url(#ai)"/><text x="604" y="206" font-family="system-ui, sans-serif" font-size="13" font-weight="700" fill="#1d2427" text-anchor="middle">Dall'alto</text><text x="604" y="224" font-family="system-ui, sans-serif" font-size="10.5" font-weight="400" fill="#5c686d" text-anchor="middle">Occhiaie: la peggiore sui volti</text><text x="20" y="34" font-family="ui-monospace, monospace" font-size="10.5" font-weight="400" fill="#5c686d" text-anchor="start" letter-spacing="0.1em">VISTA DALL'ALTO · LA POSIZIONE DELLA LUCE RISPETTO AL SOGGETTO</text><rect x="20" y="238" width="656" height="0" fill="none"/></svg>