<svg xmlns="http://www.w3.org/2000/svg" viewBox="0 0 700 300" width="700" height="300" role="img" aria-label="Schema del pannello Quick controls con undici voci e il passaggio all'icona Impostazioni"><title>Schema del pannello Quick controls con undici voci e il passaggio all'icona Impostazioni</title><rect x="0" y="0" width="700" height="300" fill="#fdfdfd"/><defs><marker id="ar" viewBox="0 0 10 10" refX="9" refY="5" markerWidth="6" markerHeight="6" orient="auto-start-reverse"><polygon points="0,1 9,5 0,9" fill="#0c7a84"/></marker><marker id="ai" viewBox="0 0 10 10" refX="9" refY="5" markerWidth="6" markerHeight="6" orient="auto-start-reverse"><polygon points="0,1 9,5 0,9" fill="#1d2427"/></marker></defs><rect x="16" y="28" width="120" height="52" rx="10" fill="#e6eaec" stroke="#1d2427" stroke-width="1.4"/><circle cx="58" cy="44" r="3.2" fill="#1d2427"/><circle cx="58" cy="55" r="3.2" fill="#1d2427"/><circle cx="69" cy="44" r="3.2" fill="#1d2427"/><circle cx="69" cy="55" r="3.2" fill="#1d2427"/><text x="76" y="72" font-family="ui-monospace, monospace" font-size="10" font-weight="400" fill="#5c686d" text-anchor="middle">quattro puntini</text><line x1="140" y1="54" x2="186" y2="54" stroke="#0c7a84" stroke-width="1.6" marker-end="url(#ar)"/><text x="163" y="46" font-family="ui-monospace, monospace" font-size="10" font-weight="400" fill="#0c7a84" text-anchor="middle">tocca</text><rect x="196" y="28" width="146" height="30" rx="6" fill="#f7f9f9" stroke="#c3cbcf" stroke-width="1.2"/><text x="207" y="47.5" font-family="system-ui, sans-serif" font-size="11.5" font-weight="400" fill="#5c686d" text-anchor="start">Flash</text><rect x="354" y="28" width="146" height="30" rx="6" fill="#d7ebed" stroke="#0c7a84" stroke-width="1.2"/><text x="365" y="47.5" font-family="system-ui, sans-serif" font-size="11.5" font-weight="600" fill="#1d2427" text-anchor="start">Timer</text><rect x="512" y="28" width="146" height="30" rx="6" fill="#d7ebed" stroke="#0c7a84" stroke-width="1.2"/><text x="523" y="47.5" font-family="system-ui, sans-serif" font-size="11.5" font-weight="600" fill="#1d2427" text-anchor="start">Proporzioni</text><rect x="196" y="70" width="146" height="30" rx="6" fill="#d7ebed" stroke="#0c7a84" stroke-width="1.2"/><text x="207" y="89.5" font-family="system-ui, sans-serif" font-size="11.5" font-weight="600" fill="#1d2427" text-anchor="start">Risoluzione</text><rect x="354" y="70" width="146" height="30" rx="6" fill="#d7ebed" stroke="#0c7a84" stroke-width="1.2"/><text x="365" y="89.5" font-family="system-ui, sans-serif" font-size="11.5" font-weight="600" fill="#1d2427" text-anchor="start">Esposizione</text><rect x="512" y="70" width="146" height="30" rx="6" fill="#d7ebed" stroke="#0c7a84" stroke-width="1.2"/><text x="523" y="89.5" font-family="system-ui, sans-serif" font-size="11.5" font-weight="600" fill="#1d2427" text-anchor="start">Foto in movimento</text><rect x="196" y="112" width="146" height="30" rx="6" fill="#f7f9f9" stroke="#c3cbcf" stroke-width="1.2"/><text x="207" y="131.5" font-family="system-ui, sans-serif" font-size="11.5" font-weight="400" fill="#5c686d" text-anchor="start">Filtri</text><rect x="354" y="112" width="146" height="30" rx="6" fill="#f7f9f9" stroke="#c3cbcf" stroke-width="1.2"/><text x="365" y="131.5" font-family="system-ui, sans-serif" font-size="11.5" font-weight="400" fill="#5c686d" text-anchor="start">Volto</text><rect x="512" y="112" width="146" height="30" rx="6" fill="#d7ebed" stroke="#0c7a84" stroke-width="1.2"/><text x="523" y="131.5" font-family="system-ui, sans-serif" font-size="11.5" font-weight="600" fill="#1d2427" text-anchor="start">Super steady</text><rect x="196" y="154" width="146" height="30" rx="6" fill="#f7f9f9" stroke="#c3cbcf" stroke-width="1.2"/><text x="207" y="173.5" font-family="system-ui, sans-serif" font-size="11.5" font-weight="400" fill="#5c686d" text-anchor="start">Doppia registrazione</text><rect x="354" y="154" width="146" height="30" rx="6" fill="#f7f9f9" stroke="#c3cbcf" stroke-width="1.2"/><text x="365" y="173.5" font-family="system-ui, sans-serif" font-size="11.5" font-weight="400" fill="#5c686d" text-anchor="start">Inquadratura auto</text><rect x="196" y="196" width="146" height="30" rx="6" fill="#e6eaec" stroke="#1d2427" stroke-width="1.4"/><circle cx="212" cy="211" r="6" fill="none" stroke="#1d2427" stroke-width="1.4"/><text x="226" y="215.5" font-family="system-ui, sans-serif" font-size="11.5" font-weight="600" fill="#1d2427" text-anchor="start">Impostazioni</text><line x1="346" y1="211" x2="392" y2="211" stroke="#0c7a84" stroke-width="1.6" marker-end="url(#ar)"/><text x="400" y="208" font-family="system-ui, sans-serif" font-size="11.5" font-weight="400" fill="#5c686d" text-anchor="start">sette sezioni: vedi la figura seguente</text><rect x="196" y="250" width="488" height="32" rx="6" fill="#d7ebed"/><text x="210" y="270" font-family="system-ui, sans-serif" font-size="11.5" font-weight="400" fill="#1d2427" text-anchor="start">In evidenza: le voci che cambiano davvero il risultato. Le altre sono cosmetiche.</text></svg>